<svg xmlns="http://www.w3.org/2000/svg" width="44" height="44" viewBox="0 0 44 44" fill="none">
  <path d="M22.3 13.2C23.2 16 25.7 17.2 25.7 20.5C25.7 23.3 23.7 25.7 20.9 26.2C21.5 24.5 20.9 22.9 19.2 21.5C18 22.8 17.4 24.2 17.4 25.7C17.4 29.2 20 31.8 23.5 31.8C27.6 31.8 30.7 28.4 30.7 24.1C30.7 18.5 26.8 16.2 25.2 12.6C24.2 10.7 24.1 9.2 24.1 9.2C24.1 9.2 21.6 10.6 20.7 12.7C19.6 14.9 19.9 16.7 19.9 16.7C19.9 16.7 21.3 15.9 22.3 13.2Z" stroke="#6B5A4D" stroke-width="2.2" stroke-linecap="round" stroke-linejoin="round"/>
</svg>
